<?xml version="1.0" encoding="UTF-8" standalone="no"?>
<!-- Created with Inkscape (http://www.inkscape.org/) -->

<svg
   width="210mm"
   height="297mm"
   viewBox="0 0 210 297"
   version="1.1"
   id="svg5"
   inkscape:version="1.1.2 (b8e25be833, 2022-02-05)"
   sodipodi:docname="drawing.svg"
   xmlns:inkscape="http://www.inkscape.org/namespaces/inkscape"
   xmlns:sodipodi="http://sodipodi.sourceforge.net/DTD/sodipodi-0.dtd"
   xmlns="http://www.w3.org/2000/svg"
   xmlns:svg="http://www.w3.org/2000/svg">
  <sodipodi:namedview
     id="namedview7"
     pagecolor="#ffffff"
     bordercolor="#666666"
     borderopacity="1.0"
     inkscape:pageshadow="2"
     inkscape:pageopacity="0.0"
     inkscape:pagecheckerboard="0"
     inkscape:document-units="mm"
     showgrid="false"
     inkscape:zoom="0.7198092"
     inkscape:cx="504.99493"
     inkscape:cy="467.48499"
     inkscape:window-width="1920"
     inkscape:window-height="1001"
     inkscape:window-x="-9"
     inkscape:window-y="-9"
     inkscape:window-maximized="1"
     inkscape:current-layer="layer1" />
  <defs
     id="defs2">
    <rect
       x="202.83153"
       y="502.91105"
       width="77.798394"
       height="87.523193"
       id="rect5132" />
  </defs>
  <g
     inkscape:label="Layer 1"
     inkscape:groupmode="layer"
     id="layer1">
    <text
       xml:space="preserve"
       style="font-style:normal;font-weight:normal;font-size:50.8px;line-height:1.25;font-family:sans-serif;fill:#000000;fill-opacity:1;stroke:none;stroke-width:0.264583"
       x="31.978958"
       y="132.32674"
       id="text660"><tspan
         id="tspan658"
         style="font-style:normal;font-variant:normal;font-weight:bold;font-stretch:normal;font-family:sans-serif;-inkscape-font-specification:'sans-serif Bold';stroke-width:0.264583;font-size:50.8px"
         x="31.978958"
         y="132.32674"
         sodipodi:role="line">AI</tspan></text>
    <text
       xml:space="preserve"
       transform="scale(0.26458333)"
       id="text5130"
       style="fill:black;fill-opacity:1;line-height:1.25;stroke:none;font-family:sans-serif;font-style:normal;font-weight:normal;font-size:40px;white-space:pre;shape-inside:url(#rect5132)" />
    <text
       xml:space="preserve"
       style="font-size:18.1469px;line-height:1.25;font-family:sans-serif;stroke-width:0.340253"
       x="91.537872"
       y="104.62002"
       id="text7500"
       transform="scale(0.96215823,1.0393301)"><tspan
         id="tspan7498"
         style="font-style:normal;font-variant:normal;font-weight:bold;font-stretch:normal;font-family:sans-serif;-inkscape-font-specification:'sans-serif Bold';stroke-width:0.340253"
         x="91.537872"
         y="104.62002"
         sodipodi:role="line">and</tspan></text>
    <text
       xml:space="preserve"
       style="font-size:25.4px;line-height:1.25;font-family:sans-serif;stroke-width:0.264583"
       x="87.349503"
       y="132.32674"
       id="text12653"><tspan
         sodipodi:role="line"
         id="tspan12651"
         style="font-style:normal;font-variant:normal;font-weight:bold;font-stretch:normal;font-size:25.4px;font-family:sans-serif;-inkscape-font-specification:'sans-serif Bold';stroke-width:0.264583"
         x="87.349503"
         y="132.32674">DevOps</tspan></text>
    <text
       xml:space="preserve"
       style="font-size:16.93333333px;line-height:1.25;font-family:sans-serif;stroke-width:0.264583"
       x="30.508663"
       y="150.70544"
       id="text14681"><tspan
         sodipodi:role="line"
         id="tspan14679"
         style="stroke-width:0.264583;font-size:16.93333333px"
         x="30.508663"
         y="150.70544">ML DevOps</tspan></text>
    <path
       style="fill:#ffffff;stroke-width:1.38926"
       d="m 126.70958,489.36579 c 2.03578,-5.53966 13.54436,-36.64165 25.57461,-69.11554 l 21.8732,-59.04342 h 21.05137 21.05136 l 22.85063,61.82194 c 12.56785,34.00206 24.07274,65.10406 25.56643,69.11553 l 2.7158,7.2936 h -17.17585 -17.17586 l -4.50849,-12.50331 -4.50849,-12.50331 h -28.83368 -28.83368 l -4.50849,12.50331 -4.50848,12.50331 h -17.1659 -17.16589 z m 87.95723,-40.98308 c 0.0484,-1.89586 -18.76746,-55.91686 -19.4762,-55.91686 -0.70874,0 -19.52459,54.021 -19.47619,55.91686 0.0146,0.57307 8.77891,1.04194 19.47619,1.04194 10.69728,0 19.46157,-0.46887 19.4762,-1.04194 z"
       id="path19978"
       transform="scale(0.26458333)" />
    <path
       style="fill:#ffffff;stroke-width:1.38926"
       d="M 288.27083,429.97505 V 360.5122 h 17.36572 17.36571 v 69.46285 69.46285 h -17.36571 -17.36572 z"
       id="path20017"
       transform="scale(0.26458333)" />
    <path
       style="fill:#ffffff;stroke-width:1.38926"
       d="m 357.73369,464.57611 v -20.96922 l 7.2936,0.95858 c 13.50692,1.77519 20.48474,8.87831 20.48938,20.85731 0.005,11.93683 -8.60408,20.12255 -21.16234,20.12255 h -6.62064 z"
       id="path20056"
       transform="scale(0.26458333)" />
    <path
       style="fill:#ffffff;stroke-width:1.38926"
       d="m 339.67335,465.43134 v -34.32187 l 20.49154,0.50204 c 17.67799,0.4331 21.25453,0.91 26.04857,3.47333 11.70338,6.25769 17.36571,15.83409 17.36571,29.36971 0,15.36345 -5.57257,24.87921 -17.91174,30.58621 -6.91301,3.19734 -9.93898,3.66517 -26.8918,4.1576 l -19.10228,0.55486 z m 36.02192,19.06989 c 7.16348,-3.65274 10.25905,-8.79869 10.85174,-18.03951 0.93842,-14.63133 -5.41113,-21.50387 -21.51972,-23.29221 l -8.68286,-0.96396 v 22.36452 22.36452 l 7.2936,-0.002 c 4.19728,-10e-4 9.31589,-1.03335 12.05724,-2.4312 z"
       id="path20095"
       transform="scale(0.26458333)" />
    <path
       style="fill:#ffffff;stroke-width:1.38926"
       d="m 345.925,410.78774 c -7.06205,-1.37164 -11.07196,-9.99604 -8.16719,-17.56576 1.41831,-3.69606 8.23199,-6.3139 16.43374,-6.3139 8.30861,0 8.85859,-0.5203 5.54725,-5.24791 -2.38596,-3.40643 -9.99759,-4.20568 -16.50187,-1.73276 -3.31425,1.26008 -3.56358,1.07479 -3.56358,-2.64815 0,-3.74799 0.44082,-4.06364 6.91935,-4.95467 9.64459,-1.32647 17.17431,0.23538 21.06161,4.36869 2.95554,3.1426 3.32349,4.97452 3.74755,18.65845 l 0.47023,15.17372 h -4.98532 c -4.05914,0 -4.98531,-0.51619 -4.98531,-2.77851 0,-3.48851 -1.65899,-3.53973 -4.73022,-0.14606 -2.57239,2.84246 -6.82091,4.04637 -11.24624,3.18686 z m 13.04075,-9.10304 c 0.72769,-0.87682 1.75369,-3.30993 2.28,-5.4069 0.91339,-3.63924 0.72471,-3.81269 -4.14742,-3.81269 -6.93845,0 -10.4787,2.14378 -10.4787,6.34531 0,5.38606 8.5999,7.38819 12.34612,2.87428 z"
       id="path20134"
       transform="scale(0.26458333)" />
    <path
       style="fill:#ffffff;stroke-width:1.38926"
       d="m 384.12957,391.77048 v -18.75497 h 4.8624 c 4.06617,0 4.8624,0.49465 4.8624,3.02069 v 3.02068 l 3.19262,-2.99931 c 4.03656,-3.79216 10.83425,-5.20071 14.81561,-3.06995 4.96329,2.65628 6.9984,9.72126 6.9984,24.29527 v 13.24256 h -5.55703 -5.55703 v -14.43856 c 0,-15.21202 -0.3953,-16.12509 -6.98113,-16.12509 -4.91884,0 -6.91144,5.29599 -6.91144,18.36946 v 12.19419 h -4.8624 -4.8624 z"
       id="path20210"
       transform="scale(0.26458333)" />
    <path
       style="fill:#ffffff;stroke-width:1.38926"
       d="m 440.23854,410.86816 c -1.61395,-0.26719 -4.71084,-2.33994 -6.88198,-4.60612 -3.29736,-3.44171 -4.03969,-5.56787 -4.50715,-12.90917 -0.65986,-10.36287 1.81237,-16.40578 8.02645,-19.61921 5.75704,-2.97708 8.92949,-2.6355 13.83146,1.48924 l 4.27436,3.59663 v -10.54292 -10.54292 h 4.8624 4.8624 v 26.39588 26.39588 h -4.8624 c -4.0528,0 -4.8624,-0.49848 -4.8624,-2.99383 0,-2.76446 -0.18646,-2.82509 -2.43374,-0.79132 -3.2079,2.90311 -8.66119,4.73183 -12.3094,4.12786 z m 12.58048,-10.37662 c 2.78157,-3.97125 2.78157,-13.47086 0,-17.44211 -2.59663,-3.7072 -9.12658,-4.14057 -11.90712,-0.79022 -1.09962,1.32495 -1.90668,5.48868 -1.90668,9.83679 0,5.85976 0.60078,7.97868 2.69673,9.51127 3.9429,2.88312 8.64683,2.41102 11.11707,-1.11573 z"
       id="path20249"
       transform="scale(0.26458333)" />
    <path
       style="fill:#ffffff;stroke-width:1.38926"
       d="m 432.41887,498.9419 c -8.32558,-3.1181 -11.65715,-5.90574 -14.78834,-12.37391 -6.71108,-13.86324 -1.68881,-29.73961 11.64989,-36.82756 5.13288,-2.72752 20.80823,-2.97736 25.70126,-0.40963 8.83297,4.63529 12.45391,10.28334 14.53316,22.66928 l 0.87457,5.20971 h -20.20718 c -11.11395,0 -20.20718,0.2193 -20.20718,0.48732 0,0.26803 0.69295,2.4751 1.53988,4.90461 3.34022,9.58177 15.96693,10.95841 33.53886,3.6566 2.08211,-0.86519 2.4312,-0.20036 2.4312,4.63011 0,5.32211 -0.29395,5.72588 -5.20971,7.15611 -8.89392,2.58765 -24.12119,3.04532 -29.85641,0.89736 z m 21.17355,-32.53705 c 0,-4.00552 -3.86654,-8.35773 -8.28779,-9.3288 -5.64623,-1.24012 -11.28233,1.79906 -13.50642,7.28311 l -1.83113,4.51509 h 11.81267 c 10.3936,0 11.81267,-0.29665 11.81267,-2.4694 z"
       id="path20288"
       transform="scale(0.26458333)" />
    <path
       style="fill:#ffffff;stroke-width:1.38926"
       d=""
       id="path20327"
       transform="scale(0.26458333)" />
    <path
       style="fill:#ffffff;stroke-width:1.38926"
       d="m 492.9899,488.00796 c -2.40027,-6.32104 -6.89733,-17.93089 -9.99347,-25.79966 l -5.62934,-14.30687 7.73774,0.4143 7.73775,0.41429 6.24073,17.71303 c 3.43241,9.74216 6.63893,17.71303 7.12562,17.71303 0.48668,0 3.72953,-7.97087 7.20633,-17.71303 l 6.32146,-17.71303 7.2163,-0.41991 c 3.96897,-0.23096 7.21631,0.15605 7.21631,0.86002 0,0.70397 -4.29639,12.14592 -9.54753,25.42655 l -9.54752,24.1466 -8.86013,0.37873 -8.86013,0.37874 z"
       id="path20366"
       transform="scale(0.26458333)" />
    <path
       style="fill:#ffffff;stroke-width:1.38926"
       d="m 567.50251,499.6123 c -6.75876,-2.21737 -12.12898,-5.64314 -16.3088,-10.4037 -13.33176,-15.18402 -9.65416,-43.90478 6.93516,-54.16116 5.07456,-3.13736 8.74532,-4.20732 16.28507,-4.74679 23.01443,-1.64667 37.06598,9.86326 38.61126,31.62731 1.62912,22.94507 -10.60754,37.25231 -32.8123,38.36452 -5.07554,0.25422 -10.79522,-0.0519 -12.71039,-0.68018 z m 20.47162,-13.5507 c 5.37135,-3.35036 7.94334,-10.0353 7.949,-20.66049 0.006,-11.96644 -3.05568,-19.00263 -9.62666,-22.12076 -8.5523,-4.05834 -17.36401,-1.82469 -22.25612,5.6416 -3.66702,5.59659 -4.47579,21.09906 -1.50638,28.87435 4.13991,10.84021 15.43088,14.50856 25.44016,8.2653 z"
       id="path20405"
       transform="scale(0.26458333)" />
    <path
       style="fill:#ffffff;stroke-width:1.38926"
       d=""
       id="path20444"
       transform="scale(0.26458333)" />
    <path
       style="fill:#ffffff;stroke-width:1.38926"
       d="m 627.24955,483.46145 v -35.42606 h 8.33554 8.33555 v 4.16778 4.16777 l 2.90028,-2.90028 c 4.42498,-4.42498 12.16786,-7.17383 17.42763,-6.18709 9.9306,1.86299 18.48101,13.66763 18.54077,25.59727 0.11432,22.81991 -19.46152,35.69384 -34.73419,22.84273 l -4.13449,-3.47894 v 13.32143 13.32144 h -8.33555 -8.33554 z m 35.43017,3.46859 c 5.35113,-5.91293 4.91349,-22.12618 -0.7204,-26.68823 -4.36701,-3.53618 -10.55696,-3.14335 -14.62869,0.92838 -2.91125,2.91125 -3.40999,4.71258 -3.40999,12.31596 0,11.50895 3.19813,16.22696 10.99957,16.22696 3.47939,0 6.0874,-0.93541 7.75951,-2.78307 z"
       id="path20483"
       transform="scale(0.26458333)" />
    <path
       style="fill:#ffffff;stroke-width:1.38926"
       d="m 700.53286,499.12338 c -6.50647,-1.35603 -6.59897,-1.4511 -6.59897,-6.78205 0,-2.97371 0.15629,-5.39997 0.34731,-5.3917 0.19103,0.008 3.41621,0.94602 7.16708,2.08388 13.63535,4.13643 23.80597,1.92996 22.83389,-4.9537 -0.39711,-2.81203 -1.55082,-3.58914 -6.73091,-4.53375 -19.18807,-3.49901 -23.61737,-6.5949 -23.61737,-16.50752 0,-7.02662 1.79241,-10.24358 7.33478,-13.16418 4.84721,-2.55429 19.95227,-3.27637 29.13322,-1.3927 4.98957,1.02373 5.20971,1.30734 5.20971,6.71161 0,4.81145 -0.35815,5.5021 -2.4312,4.68821 -10.98331,-4.31206 -24.36638,-3.53283 -26.3099,1.5319 -1.25729,3.27646 2.67313,5.67222 11.13553,6.78761 10.35434,1.36474 18.73183,5.35766 20.38972,9.71824 6.45583,16.98013 -11.06104,26.79001 -37.86289,21.20415 z"
       id="path20522"
       transform="scale(0.26458333)" />
    <path
       style="fill:#ffffff;stroke-width:1.38926"
       d="m 122.94925,545.88574 v -23.01502 l 3.77285,0.43959 c 3.42041,0.39853 4.29639,1.82515 9.37748,15.27216 3.08255,8.15792 6.00512,15.22683 6.49459,15.7087 0.7785,0.7664 4.89714,-8.97751 11.00096,-26.02618 1.55206,-4.33508 2.51806,-5.20972 5.75389,-5.20972 h 3.88868 v 22.92275 c 0,19.44959 -0.31574,22.92274 -2.08388,22.92274 -1.75784,0 -2.08389,-3.19529 -2.08389,-20.42208 0,-12.51774 -0.49673,-19.91126 -1.28337,-19.10229 -0.70586,0.72589 -3.7697,7.88404 -6.80854,15.907 -7.39519,19.52435 -8.7777,19.49757 -16.29265,-0.31556 -3.10887,-8.19651 -6.08356,-15.33382 -6.61042,-15.86068 -0.52686,-0.52687 -0.95793,8.21116 -0.95793,19.41784 0,17.18562 -0.32627,20.37577 -2.08389,20.37577 -1.76848,0 -2.08388,-3.4834 -2.08388,-23.01502 z"
       id="path20561"
       transform="scale(0.26458333)" />
    <path
       style="fill:#ffffff;stroke-width:1.38926"
       d="m 177.13027,545.97802 c 0,-21.99657 0.11227,-22.92275 2.77852,-22.92275 2.65502,0 2.77851,0.92618 2.77851,20.83886 v 20.83886 h 11.11406 c 8.95299,0 11.11405,0.4052 11.11405,2.08388 0,1.71342 -2.46979,2.08389 -13.89257,2.08389 h -13.89257 z"
       id="path20600"
       transform="scale(0.26458333)" />
    <path
       style="fill:#ffffff;stroke-width:1.38926"
       d=""
       id="path20639"
       transform="scale(0.26458333)" />
    <path
       style="fill:#ffffff;stroke-width:1.38926"
       d="M 239.64684,545.97802 V 528.6123 h 5.60165 c 13.33231,0 20.26249,7.25806 19.04348,19.94447 -0.53951,5.61487 -1.52562,7.74482 -5.03896,10.88399 -3.66238,3.27234 -5.59923,3.90297 -11.98718,3.90297 h -7.61899 z"
       id="path20678"
       transform="scale(0.26458333)" />
    <path
       style="fill:#ffffff;stroke-width:1.38926"
       d="m 234.08981,545.95249 v -23.2967 l 11.43443,0.9536 c 17.27337,1.44054 24.02486,6.64871 25.57391,19.72798 0.63999,5.40375 0.17672,8.53141 -1.98879,13.42692 -3.75409,8.48673 -8.86478,11.05971 -23.55818,11.86036 l -11.46137,0.62454 z m 23.61737,17.00412 c 7.60211,-3.79853 10.64203,-17.9099 5.90218,-27.39802 -2.80253,-5.61004 -8.5387,-8.13576 -18.75281,-8.25713 l -6.59897,-0.0784 v 18.75497 18.75497 l 7.98823,-0.0205 c 4.39352,-0.0113 9.55114,-0.80142 11.46137,-1.7559 z"
       id="path20717"
       transform="scale(0.26458333)" />
    <path
       style="fill:#ffffff;stroke-width:1.38926"
       d="m 286.88158,546.05679 c 0,-2.80465 5.46854,-6.33043 9.8186,-6.33043 3.68117,0 8.24174,3.71207 8.24174,6.70836 0,1.07651 -3.05598,1.62718 -9.03017,1.62718 -6.94297,0 -9.03017,-0.46345 -9.03017,-2.00511 z"
       id="path20756"
       transform="scale(0.26458333)" />
    <path
       style="fill:#ffffff;stroke-width:1.38926"
       d="m 290.67105,548.44849 c 2.46625,-0.30691 6.84241,-0.31195 9.7248,-0.0112 2.88238,0.30074 0.86454,0.55184 -4.4841,0.55801 -5.34864,0.006 -7.70696,-0.2399 -5.2407,-0.5468 z"
       id="path20795"
       transform="scale(0.26458333)" />
    <path
       style="fill:#ffffff;stroke-width:0.694629"
       d="m 290.52697,568.95164 c -8.27653,-2.9536 -12.34713,-11.45542 -10.2716,-21.45317 1.67606,-8.07352 8.05273,-13.25179 16.29468,-13.23234 4.80763,0.0113 7.89396,1.32595 10.95004,4.66412 2.23426,2.44049 4.0408,7.66631 4.0408,11.68893 v 2.65243 h -13.28672 -13.28672 l 0.45541,2.95218 c 0.50464,3.27126 1.96703,5.61766 4.83636,7.75993 2.78321,2.07796 10.61091,2.36197 15.8983,0.57682 l 3.99411,-1.34851 v 2.23186 c 0,2.12694 -0.1899,2.28514 -4.03968,3.36533 -4.84136,1.35842 -11.99436,1.42378 -15.58498,0.14242 z m 15.4868,-22.46276 c -0.55544,-3.03745 -2.38382,-6.0884 -4.06569,-6.78425 -7.07422,-2.92687 -14.40474,-0.24813 -16.10897,5.88658 -0.37749,1.35888 -0.6881,2.70513 -0.69023,2.99166 -0.002,0.28654 4.79919,0.52097 10.6696,0.52097 h 10.67347 z"
       id="path20908"
       transform="scale(0.26458333)" />
    <path
       style="fill:#ffffff;stroke-width:0.694629"
       d="m 325.7966,556.5711 c -2.60297,-6.97233 -5.46605,-14.63061 -6.36239,-17.0184 l -1.62973,-4.34143 h 2.61196 2.61195 l 3.37714,9.20383 c 6.54684,17.84229 7.51908,20.1481 8.09948,19.20899 0.30773,-0.49792 2.84396,-7.0945 5.63605,-14.65906 l 5.07654,-13.75376 h 2.68556 c 2.27698,0 2.61272,0.18495 2.2068,1.2156 -0.26332,0.66858 -3.14836,8.32686 -6.4112,17.0184 l -5.93244,15.8028 h -3.61852 -3.61853 z"
       id="path20947"
       transform="scale(0.26458333)" />
    <path
       style="fill:#ffffff;stroke-width:0.694629"
       d="m 371.96907,569.33388 c -10.5277,-3.44548 -16.38271,-14.46331 -14.55276,-27.38508 1.21061,-8.54843 4.66158,-13.83792 11.14034,-17.07539 3.72235,-1.86008 5.0858,-2.16545 9.66858,-2.16545 12.96651,0 21.06773,9.08163 21.06773,23.61737 0,9.95317 -3.75035,17.36829 -10.69487,21.1457 -3.11907,1.69659 -4.70132,2.07645 -9.32231,2.23804 -3.0611,0.10705 -6.34912,-0.0618 -7.30671,-0.37519 z m 12.16646,-4.85442 c 3.39356,-1.54167 6.81656,-5.30785 8.08056,-8.89072 1.22644,-3.47641 1.22644,-15.05041 0,-18.52682 -2.07283,-5.87555 -7.96931,-10.15568 -13.99086,-10.15568 -6.02155,0 -11.91803,4.28013 -13.99086,10.15568 -1.22644,3.47641 -1.22644,15.05041 0,18.52682 2.88474,8.17696 12.25636,12.36368 19.90116,8.89072 z"
       id="path20986"
       transform="scale(0.26458333)" />
    <path
       style="fill:#ffffff;stroke-width:0.694629"
       d="m 409.48351,558.82864 v -23.61737 h 2.4312 c 2.31543,0 2.4312,0.11577 2.4312,2.4312 0,2.66875 0.94187,3.17583 2.05066,1.10403 2.19467,-4.10077 10.26619,-5.75726 15.5824,-3.19791 3.02051,1.45415 6.2691,5.98684 7.46714,10.41874 1.11725,4.13307 0.42179,12.65859 -1.30413,15.98714 -1.72871,3.3339 -4.67293,6.24026 -7.34386,7.24941 -4.86643,1.83866 -11.65187,0.15889 -14.23405,-3.52372 -1.82271,-2.59947 -2.21816,-1.22035 -2.21816,7.73568 v 9.03017 h -2.4312 -2.4312 z m 20.2396,5.85503 c 6.64997,-3.43884 6.76118,-20.75617 0.16106,-25.08073 -2.40869,-1.57824 -7.8681,-1.5526 -10.31157,0.0484 -6.31992,4.14097 -6.16301,21.59745 0.22532,25.06759 2.45285,1.33239 7.31381,1.31511 9.92519,-0.0353 z"
       id="path21025"
       transform="scale(0.26458333)" />
    <path
       style="fill:#ffffff;stroke-width:0.694629"
       d="m 451.16122,568.9769 c -2.91583,-0.77369 -3.14015,-0.99984 -3.33911,-3.3663 l -0.21328,-2.53689 4.03374,1.41775 c 5.19128,1.8246 13.20638,1.61817 15.43367,-0.3975 1.55544,-1.40765 1.91027,-4.49792 0.76268,-6.64222 -0.66936,-1.25071 -4.80103,-2.89323 -9.73141,-3.86867 -3.40228,-0.67312 -7.34972,-2.78669 -8.63696,-4.62449 -1.49747,-2.13794 -1.3815,-7.35289 0.222,-9.98244 1.95987,-3.21397 5.72781,-4.70415 11.8881,-4.70163 2.86534,0.001 6.3819,0.39295 7.81457,0.87063 2.23558,0.74538 2.60486,1.16293 2.60486,2.94533 0,1.66051 -0.24367,2.00017 -1.2156,1.69443 -3.5637,-1.12104 -9.21878,-1.77236 -11.90147,-1.37076 -3.83619,0.5743 -5.6379,2.32043 -5.6379,5.46398 0,3.04916 1.37465,3.98763 8.48781,5.79461 6.88382,1.74873 9.60938,3.35399 11.20708,6.6006 2.32801,4.73062 0.0851,9.86073 -5.40041,12.35212 -3.30187,1.49964 -11.39653,1.67333 -16.37837,0.35145 z"
       id="path21064"
       transform="scale(0.26458333)" />
  </g>
</svg>
